<mxfile host="app.diagrams.net" modified="2022-06-06T03:36:25.001Z" agent="5.0 (Windows NT 10.0; Win64; x64) AppleWebKit/537.36 (KHTML, like Gecko) Chrome/102.0.5005.63 Safari/537.36 Edg/102.0.1245.30" etag="ZOlFt8GWMczZ-fhQ_MkU" version="19.0.0" type="github">
  <diagram name="Page-1" id="e7e014a7-5840-1c2e-5031-d8a46d1fe8dd">
    <mxGraphModel dx="2234" dy="-306" grid="1" gridSize="10" guides="1" tooltips="1" connect="1" arrows="1" fold="1" page="1" pageScale="1" pageWidth="1169" pageHeight="826" background="none" math="0" shadow="0">
      <root>
        <mxCell id="0" />
        <mxCell id="1" parent="0" />
        <mxCell id="5" value="" style="ellipse;shape=startState;fillColor=#000000;strokeColor=#ff0000;" parent="1" vertex="1">
          <mxGeometry x="420" y="1720" width="30" height="30" as="geometry" />
        </mxCell>
        <mxCell id="aiCcN-2ICW_fQ1aedBpy-14" style="edgeStyle=orthogonalEdgeStyle;rounded=0;orthogonalLoop=1;jettySize=auto;html=1;strokeWidth=1;" edge="1" parent="1" source="MWQz74-mzpOBfi5y9opP-47">
          <mxGeometry relative="1" as="geometry">
            <mxPoint x="435" y="2020" as="targetPoint" />
          </mxGeometry>
        </mxCell>
        <mxCell id="MWQz74-mzpOBfi5y9opP-47" value="Login valid" style="rhombus;whiteSpace=wrap;html=1;fontColor=default;fillColor=none;" parent="1" vertex="1">
          <mxGeometry x="395" y="1890" width="80" height="80" as="geometry" />
        </mxCell>
        <mxCell id="MWQz74-mzpOBfi5y9opP-90" value="&lt;font style=&quot;font-size: 10px;&quot;&gt;Non&lt;/font&gt;" style="text;html=1;strokeColor=none;fillColor=none;align=center;verticalAlign=middle;whiteSpace=wrap;rounded=0;fontColor=default;" parent="1" vertex="1">
          <mxGeometry x="470" y="1890" width="60" height="30" as="geometry" />
        </mxCell>
        <mxCell id="MWQz74-mzpOBfi5y9opP-97" value="&lt;font style=&quot;font-size: 10px;&quot;&gt;Oui&lt;/font&gt;&lt;span style=&quot;color: rgba(0, 0, 0, 0); font-family: monospace; font-size: 0px; text-align: start;&quot;&gt;%3CmxGraphModel%3E%3Croot%3E%3CmxCell%20id%3D%220%22%2F%3E%3CmxCell%20id%3D%221%22%20parent%3D%220%22%2F%3E%3CmxCell%20id%3D%222%22%20value%3D%22%26lt%3Bfont%20style%3D%26quot%3Bfont-size%3A%2010px%3B%26quot%3B%26gt%3BNon%26lt%3B%2Ffont%26gt%3B%22%20style%3D%22text%3Bhtml%3D1%3BstrokeColor%3Dnone%3BfillColor%3Dnone%3Balign%3Dcenter%3BverticalAlign%3Dmiddle%3BwhiteSpace%3Dwrap%3Brounded%3D0%3BfontColor%3Ddefault%3B%22%20vertex%3D%221%22%20parent%3D%221%22%3E%3CmxGeometry%20x%3D%22320%22%20y%3D%22960%22%20width%3D%2260%22%20height%3D%2230%22%20as%3D%22geometry%22%2F%3E%3C%2FmxCell%3E%3C%2Froot%3E%3C%2FmxGraphModel%3E&lt;/span&gt;" style="text;html=1;strokeColor=none;fillColor=none;align=center;verticalAlign=middle;whiteSpace=wrap;rounded=0;fontColor=default;" parent="1" vertex="1">
          <mxGeometry x="450" y="1960" width="60" height="30" as="geometry" />
        </mxCell>
        <mxCell id="aiCcN-2ICW_fQ1aedBpy-44" style="edgeStyle=orthogonalEdgeStyle;rounded=0;orthogonalLoop=1;jettySize=auto;html=1;strokeWidth=1;" edge="1" parent="1" source="aiCcN-2ICW_fQ1aedBpy-7">
          <mxGeometry relative="1" as="geometry">
            <mxPoint x="590" y="2170" as="targetPoint" />
            <Array as="points">
              <mxPoint x="450" y="2090" />
              <mxPoint x="450" y="2170" />
            </Array>
          </mxGeometry>
        </mxCell>
        <mxCell id="aiCcN-2ICW_fQ1aedBpy-7" value="Consulter réponses" style="rounded=0;whiteSpace=wrap;html=1;fillColor=none;" vertex="1" parent="1">
          <mxGeometry x="300" y="2060" width="120" height="60" as="geometry" />
        </mxCell>
        <mxCell id="aiCcN-2ICW_fQ1aedBpy-23" style="edgeStyle=orthogonalEdgeStyle;rounded=0;orthogonalLoop=1;jettySize=auto;html=1;strokeWidth=1;" edge="1" parent="1" source="aiCcN-2ICW_fQ1aedBpy-9">
          <mxGeometry relative="1" as="geometry">
            <mxPoint x="360" y="2240" as="targetPoint" />
          </mxGeometry>
        </mxCell>
        <mxCell id="aiCcN-2ICW_fQ1aedBpy-9" value="Rechercher élève" style="rounded=0;whiteSpace=wrap;html=1;fillColor=none;" vertex="1" parent="1">
          <mxGeometry x="300" y="2150" width="120" height="60" as="geometry" />
        </mxCell>
        <mxCell id="aiCcN-2ICW_fQ1aedBpy-12" value="" style="endArrow=none;html=1;rounded=0;strokeWidth=4;" edge="1" parent="1">
          <mxGeometry width="50" height="50" relative="1" as="geometry">
            <mxPoint x="340" y="2020" as="sourcePoint" />
            <mxPoint x="550" y="2020" as="targetPoint" />
          </mxGeometry>
        </mxCell>
        <mxCell id="MWQz74-mzpOBfi5y9opP-52" style="edgeStyle=orthogonalEdgeStyle;rounded=0;orthogonalLoop=1;jettySize=auto;html=1;exitX=0.5;exitY=1;exitDx=0;exitDy=0;entryX=0.494;entryY=0.036;entryDx=0;entryDy=0;entryPerimeter=0;fontColor=default;" parent="1" source="5" target="7" edge="1">
          <mxGeometry relative="1" as="geometry" />
        </mxCell>
        <mxCell id="7" value="Login" style="" parent="1" vertex="1">
          <mxGeometry x="380" y="1790" width="110" height="50" as="geometry" />
        </mxCell>
        <mxCell id="MWQz74-mzpOBfi5y9opP-49" style="edgeStyle=orthogonalEdgeStyle;rounded=0;orthogonalLoop=1;jettySize=auto;html=1;entryX=0.5;entryY=0;entryDx=0;entryDy=0;fontColor=default;" parent="1" source="7" target="MWQz74-mzpOBfi5y9opP-47" edge="1">
          <mxGeometry relative="1" as="geometry" />
        </mxCell>
        <mxCell id="MWQz74-mzpOBfi5y9opP-48" style="edgeStyle=orthogonalEdgeStyle;rounded=0;orthogonalLoop=1;jettySize=auto;html=1;fontColor=default;exitX=1;exitY=0.5;exitDx=0;exitDy=0;entryX=1.01;entryY=0.5;entryDx=0;entryDy=0;entryPerimeter=0;" parent="1" source="MWQz74-mzpOBfi5y9opP-47" target="7" edge="1">
          <mxGeometry relative="1" as="geometry">
            <mxPoint x="240" y="1780" as="targetPoint" />
            <Array as="points">
              <mxPoint x="530" y="1930" />
              <mxPoint x="530" y="1815" />
            </Array>
          </mxGeometry>
        </mxCell>
        <mxCell id="aiCcN-2ICW_fQ1aedBpy-25" style="edgeStyle=orthogonalEdgeStyle;rounded=0;orthogonalLoop=1;jettySize=auto;html=1;exitX=0.75;exitY=1;exitDx=0;exitDy=0;strokeWidth=1;" edge="1" parent="1" source="aiCcN-2ICW_fQ1aedBpy-13">
          <mxGeometry relative="1" as="geometry">
            <mxPoint x="310" y="2380" as="targetPoint" />
          </mxGeometry>
        </mxCell>
        <mxCell id="aiCcN-2ICW_fQ1aedBpy-13" value="Editer réponses" style="rounded=0;whiteSpace=wrap;html=1;fillColor=none;" vertex="1" parent="1">
          <mxGeometry x="220" y="2280" width="120" height="60" as="geometry" />
        </mxCell>
        <mxCell id="aiCcN-2ICW_fQ1aedBpy-15" value="Consulter Statistiques" style="rounded=0;whiteSpace=wrap;html=1;fillColor=none;" vertex="1" parent="1">
          <mxGeometry x="460" y="2060" width="120" height="60" as="geometry" />
        </mxCell>
        <mxCell id="aiCcN-2ICW_fQ1aedBpy-16" value="" style="endArrow=classic;html=1;rounded=0;strokeWidth=1;entryX=0.5;entryY=0;entryDx=0;entryDy=0;" edge="1" parent="1" target="aiCcN-2ICW_fQ1aedBpy-7">
          <mxGeometry width="50" height="50" relative="1" as="geometry">
            <mxPoint x="360" y="2020" as="sourcePoint" />
            <mxPoint x="700" y="2070" as="targetPoint" />
          </mxGeometry>
        </mxCell>
        <mxCell id="aiCcN-2ICW_fQ1aedBpy-17" value="" style="endArrow=classic;html=1;rounded=0;strokeWidth=1;entryX=0.5;entryY=0;entryDx=0;entryDy=0;" edge="1" parent="1" target="aiCcN-2ICW_fQ1aedBpy-15">
          <mxGeometry width="50" height="50" relative="1" as="geometry">
            <mxPoint x="520" y="2020" as="sourcePoint" />
            <mxPoint x="370" y="2070" as="targetPoint" />
          </mxGeometry>
        </mxCell>
        <mxCell id="aiCcN-2ICW_fQ1aedBpy-18" value="" style="endArrow=none;html=1;rounded=0;strokeWidth=4;" edge="1" parent="1">
          <mxGeometry width="50" height="50" relative="1" as="geometry">
            <mxPoint x="300" y="2240" as="sourcePoint" />
            <mxPoint x="420" y="2240" as="targetPoint" />
          </mxGeometry>
        </mxCell>
        <mxCell id="aiCcN-2ICW_fQ1aedBpy-19" value="" style="endArrow=classic;html=1;rounded=0;strokeWidth=1;" edge="1" parent="1">
          <mxGeometry width="50" height="50" relative="1" as="geometry">
            <mxPoint x="410" y="2240" as="sourcePoint" />
            <mxPoint x="410" y="2280" as="targetPoint" />
          </mxGeometry>
        </mxCell>
        <mxCell id="aiCcN-2ICW_fQ1aedBpy-20" value="" style="endArrow=classic;html=1;rounded=0;strokeWidth=1;" edge="1" parent="1">
          <mxGeometry width="50" height="50" relative="1" as="geometry">
            <mxPoint x="304" y="2240" as="sourcePoint" />
            <mxPoint x="304" y="2280" as="targetPoint" />
          </mxGeometry>
        </mxCell>
        <mxCell id="aiCcN-2ICW_fQ1aedBpy-21" value="" style="endArrow=classic;html=1;rounded=0;strokeWidth=1;exitX=0.5;exitY=1;exitDx=0;exitDy=0;" edge="1" parent="1" source="aiCcN-2ICW_fQ1aedBpy-7">
          <mxGeometry width="50" height="50" relative="1" as="geometry">
            <mxPoint x="650" y="2200" as="sourcePoint" />
            <mxPoint x="360" y="2150" as="targetPoint" />
          </mxGeometry>
        </mxCell>
        <mxCell id="aiCcN-2ICW_fQ1aedBpy-26" style="edgeStyle=orthogonalEdgeStyle;rounded=0;orthogonalLoop=1;jettySize=auto;html=1;exitX=0.25;exitY=1;exitDx=0;exitDy=0;strokeWidth=1;" edge="1" parent="1" source="aiCcN-2ICW_fQ1aedBpy-22">
          <mxGeometry relative="1" as="geometry">
            <mxPoint x="400" y="2380" as="targetPoint" />
          </mxGeometry>
        </mxCell>
        <mxCell id="aiCcN-2ICW_fQ1aedBpy-22" value="Supprimer réponses" style="rounded=0;whiteSpace=wrap;html=1;fillColor=none;" vertex="1" parent="1">
          <mxGeometry x="370" y="2280" width="120" height="60" as="geometry" />
        </mxCell>
        <mxCell id="aiCcN-2ICW_fQ1aedBpy-24" value="" style="endArrow=none;html=1;rounded=0;strokeWidth=4;" edge="1" parent="1">
          <mxGeometry width="50" height="50" relative="1" as="geometry">
            <mxPoint x="290" y="2380" as="sourcePoint" />
            <mxPoint x="410" y="2380" as="targetPoint" />
          </mxGeometry>
        </mxCell>
        <mxCell id="aiCcN-2ICW_fQ1aedBpy-36" style="edgeStyle=orthogonalEdgeStyle;rounded=0;orthogonalLoop=1;jettySize=auto;html=1;entryX=1;entryY=0.5;entryDx=0;entryDy=0;strokeWidth=1;" edge="1" parent="1" source="aiCcN-2ICW_fQ1aedBpy-28" target="aiCcN-2ICW_fQ1aedBpy-35">
          <mxGeometry relative="1" as="geometry" />
        </mxCell>
        <mxCell id="aiCcN-2ICW_fQ1aedBpy-39" value="" style="edgeStyle=orthogonalEdgeStyle;rounded=0;orthogonalLoop=1;jettySize=auto;html=1;strokeWidth=1;" edge="1" parent="1" source="aiCcN-2ICW_fQ1aedBpy-28" target="aiCcN-2ICW_fQ1aedBpy-38">
          <mxGeometry relative="1" as="geometry" />
        </mxCell>
        <mxCell id="aiCcN-2ICW_fQ1aedBpy-28" value="Sauvegarder" style="rhombus;whiteSpace=wrap;html=1;fillColor=none;" vertex="1" parent="1">
          <mxGeometry x="315" y="2410" width="90" height="90" as="geometry" />
        </mxCell>
        <mxCell id="aiCcN-2ICW_fQ1aedBpy-29" value="" style="endArrow=classic;html=1;rounded=0;strokeWidth=1;entryX=0.5;entryY=0;entryDx=0;entryDy=0;" edge="1" parent="1" target="aiCcN-2ICW_fQ1aedBpy-28">
          <mxGeometry width="50" height="50" relative="1" as="geometry">
            <mxPoint x="360" y="2380" as="sourcePoint" />
            <mxPoint x="700" y="2400" as="targetPoint" />
          </mxGeometry>
        </mxCell>
        <mxCell id="aiCcN-2ICW_fQ1aedBpy-33" value="Non" style="text;html=1;align=center;verticalAlign=middle;resizable=0;points=[];autosize=1;strokeColor=none;fillColor=none;" vertex="1" parent="1">
          <mxGeometry x="270" y="2430" width="40" height="20" as="geometry" />
        </mxCell>
        <mxCell id="aiCcN-2ICW_fQ1aedBpy-42" style="edgeStyle=orthogonalEdgeStyle;rounded=0;orthogonalLoop=1;jettySize=auto;html=1;exitX=0.25;exitY=0;exitDx=0;exitDy=0;strokeWidth=1;" edge="1" parent="1" source="aiCcN-2ICW_fQ1aedBpy-35">
          <mxGeometry relative="1" as="geometry">
            <mxPoint x="170" y="2250" as="targetPoint" />
          </mxGeometry>
        </mxCell>
        <mxCell id="aiCcN-2ICW_fQ1aedBpy-35" value="Réinitialisation des modifications" style="rounded=0;whiteSpace=wrap;html=1;fillColor=none;" vertex="1" parent="1">
          <mxGeometry x="140" y="2425" width="120" height="60" as="geometry" />
        </mxCell>
        <mxCell id="aiCcN-2ICW_fQ1aedBpy-40" style="edgeStyle=orthogonalEdgeStyle;rounded=0;orthogonalLoop=1;jettySize=auto;html=1;strokeWidth=1;" edge="1" parent="1" source="aiCcN-2ICW_fQ1aedBpy-38">
          <mxGeometry relative="1" as="geometry">
            <mxPoint x="120" y="2250" as="targetPoint" />
          </mxGeometry>
        </mxCell>
        <mxCell id="aiCcN-2ICW_fQ1aedBpy-38" value="Enregistrement des modifications" style="whiteSpace=wrap;html=1;fillColor=none;strokeColor=rgb(0, 0, 0);fontColor=rgb(0, 0, 0);" vertex="1" parent="1">
          <mxGeometry x="300" y="2540" width="120" height="60" as="geometry" />
        </mxCell>
        <mxCell id="aiCcN-2ICW_fQ1aedBpy-41" value="" style="endArrow=none;html=1;rounded=0;strokeWidth=4;" edge="1" parent="1">
          <mxGeometry width="50" height="50" relative="1" as="geometry">
            <mxPoint x="110" y="2250" as="sourcePoint" />
            <mxPoint x="190" y="2250" as="targetPoint" />
          </mxGeometry>
        </mxCell>
        <mxCell id="aiCcN-2ICW_fQ1aedBpy-43" value="" style="endArrow=classic;html=1;rounded=0;strokeWidth=1;entryX=0;entryY=0.5;entryDx=0;entryDy=0;" edge="1" parent="1" target="aiCcN-2ICW_fQ1aedBpy-7">
          <mxGeometry width="50" height="50" relative="1" as="geometry">
            <mxPoint x="150" y="2250" as="sourcePoint" />
            <mxPoint x="700" y="2220" as="targetPoint" />
            <Array as="points">
              <mxPoint x="150" y="2090" />
            </Array>
          </mxGeometry>
        </mxCell>
        <mxCell id="aiCcN-2ICW_fQ1aedBpy-46" value="" style="endArrow=classic;html=1;rounded=0;strokeWidth=1;exitX=0.5;exitY=1;exitDx=0;exitDy=0;" edge="1" parent="1" source="aiCcN-2ICW_fQ1aedBpy-15">
          <mxGeometry width="50" height="50" relative="1" as="geometry">
            <mxPoint x="460" y="2140" as="sourcePoint" />
            <mxPoint x="610" y="2140" as="targetPoint" />
            <Array as="points">
              <mxPoint x="520" y="2140" />
            </Array>
          </mxGeometry>
        </mxCell>
        <mxCell id="aiCcN-2ICW_fQ1aedBpy-47" value="" style="endArrow=none;html=1;rounded=0;strokeWidth=4;" edge="1" parent="1">
          <mxGeometry width="50" height="50" relative="1" as="geometry">
            <mxPoint x="580" y="2190" as="sourcePoint" />
            <mxPoint x="620" y="2130" as="targetPoint" />
          </mxGeometry>
        </mxCell>
        <mxCell id="aiCcN-2ICW_fQ1aedBpy-50" style="edgeStyle=orthogonalEdgeStyle;rounded=0;orthogonalLoop=1;jettySize=auto;html=1;strokeWidth=1;" edge="1" parent="1" source="aiCcN-2ICW_fQ1aedBpy-48">
          <mxGeometry relative="1" as="geometry">
            <mxPoint x="630" y="2380" as="targetPoint" />
          </mxGeometry>
        </mxCell>
        <mxCell id="aiCcN-2ICW_fQ1aedBpy-48" value="Déconnexion" style="rounded=0;whiteSpace=wrap;html=1;fillColor=none;" vertex="1" parent="1">
          <mxGeometry x="570" y="2280" width="120" height="60" as="geometry" />
        </mxCell>
        <mxCell id="aiCcN-2ICW_fQ1aedBpy-49" value="" style="endArrow=classic;html=1;rounded=0;strokeWidth=1;entryX=0.5;entryY=0;entryDx=0;entryDy=0;" edge="1" parent="1" target="aiCcN-2ICW_fQ1aedBpy-48">
          <mxGeometry width="50" height="50" relative="1" as="geometry">
            <mxPoint x="600" y="2160" as="sourcePoint" />
            <mxPoint x="700" y="2300" as="targetPoint" />
            <Array as="points">
              <mxPoint x="630" y="2160" />
            </Array>
          </mxGeometry>
        </mxCell>
        <mxCell id="aiCcN-2ICW_fQ1aedBpy-51" value="" style="ellipse;html=1;shape=endState;fillColor=#000000;strokeColor=#ff0000;" vertex="1" parent="1">
          <mxGeometry x="615" y="2380" width="30" height="30" as="geometry" />
        </mxCell>
      </root>
    </mxGraphModel>
  </diagram>
</mxfile>
